<?xml version="1.0" encoding="UTF-8"?>
<!DOCTYPE svg  PUBLIC '-//W3C//DTD SVG 1.1//EN'  'http://www.w3.org/Graphics/SVG/1.1/DTD/svg11.dtd'>
<svg enable-background="new 0 0 14.35 29.6" version="1.1" viewBox="0 0 14.35 29.6" xml:space="preserve" xmlns="http://www.w3.org/2000/svg">
	<path d="m8.8 16.8c0.2-2.4-0.633-4.983-2.5-7.75-0.933-1.4-1.883-2.55-2.85-3.45l5.7-2.8c0.733 0.934 1.5 2.083 2.3 3.45 1.6 2.733 2.55 5.133 2.85 7.2 0.3 2.1-0.616 5.416-2.75 9.95-1.066 2.267-2.166 4.333-3.3 6.199-2.233-0.333-4.183-1.166-5.85-2.5 1-0.767 2-1.767 3-3 2.067-2.465 3.2-4.899 3.4-7.299z" clip-rule="evenodd" fill="#81908E" fill-rule="evenodd"/>
	<g clip-rule="evenodd" fill-rule="evenodd">
		<path d="m8.55 10.7l-0.75-1.1 0.6 1.2c0.399 0.967 0.666 1.817 0.8 2.55 0.233 1.167 0.3 2.417 0.2 3.75-0.134 1.7-0.534 3.034-1.2 4-0.934 1.467-2.35 3.284-4.25 5.45l0.35 0.9c2.567-2.566 4.2-4.733 4.9-6.5 1-2.434 1.166-4.983 0.5-7.65-0.2-0.833-0.584-1.7-1.15-2.6zm1.95-5.9c0.366 0.467 0.816 1.217 1.35 2.25-1.034 0.933-1.683 1.45-1.95 1.55l-1.45 0.5c1.133 1.533 1.833 3.367 2.1 5.5 0.4 3.3-0.066 6.117-1.399 8.45-0.867 1.434-2.3 3.283-4.3 5.55-1.033-0.5-1.85-1-2.45-1.5 1-0.767 2-1.767 3-3 2.067-2.466 3.2-4.899 3.4-7.3 0.267-3.033-1.033-6.233-3.9-9.6 0.767-1.133 1.533-1.833 2.3-2.1 1.266-0.4 2.365-0.5 3.299-0.3z" fill="#637572"/>
		<path d="m9.7 13.3c0.666 2.667 0.5 5.217-0.5 7.65-0.7 1.767-2.333 3.934-4.9 6.5l-0.35-0.9c1.9-2.166 3.316-3.983 4.25-5.45 0.666-0.966 1.066-2.3 1.2-4 0.1-1.333 0.033-2.583-0.2-3.75-0.134-0.733-0.4-1.583-0.8-2.55l-0.6-1.2 0.75 1.1c0.566 0.9 0.95 1.767 1.15 2.6z" fill="#485956"/>
		<path d="m11.65 10.55c0.5-0.966 1-0.833 1.5 0.4 0.5 1.2 0.683 2.667 0.55 4.399-0.101 1.434-0.634 3.134-1.601 5.101-0.5 0.967-0.983 1.8-1.449 2.5 1-2.167 1.633-4.3 1.899-6.4 0.267-2.133-0.032-4.133-0.899-6z" fill="#9EAEAB"/>
	</g>
	<path d="m10.4 0.45c1.034 0.133 1.833 0.35 2.4 0.65 0 2.133-0.217 3.583-0.649 4.35-0.367 0.6-1.167 1.183-2.4 1.75-1.267 0.6-2.634 1.017-4.1 1.25-1.234 0.2-2.384 0.117-3.451-0.25-0.533-0.167-0.95-0.367-1.25-0.6-0.667-1.367-0.767-2.617-0.3-3.75 0.467-1.2 1.55-2.083 3.25-2.65 2.3-0.767 4.466-1.017 6.5-0.75z" clip-rule="evenodd" fill="#546764" fill-rule="evenodd"/>
		<path d="m10.35 0.4c1 0.167 1.817 0.4 2.45 0.7-0.6-0.1-0.9 0.033-0.9 0.4l-0.6 0.6-4.95 1.35-1.55 2.25 0.2 0.8c0.333 0.533 0.967 0.8 1.9 0.8 1.534 0 3.284-0.617 5.25-1.85-0.367 0.6-1.167 1.183-2.4 1.75-1.267 0.6-2.634 1.017-4.1 1.25-1.233 0.2-2.383 0.117-3.45-0.25-0.533-0.167-0.95-0.367-1.25-0.6-0.4-0.833-0.65-1.4-0.75-1.7-0.2-0.667-0.2-1.233 0-1.7 0.566-1.333 2.183-2.467 4.85-3.4 1.6-0.6 3.367-0.733 5.3-0.4z" clip-rule="evenodd" fill="#455452" fill-rule="evenodd"/>
	<path d="m5.05 0.6c1.267-0.4 2.733-0.6 4.4-0.6 2 0 3.116 0.383 3.35 1.15 0.167 0.533-0.25 1.117-1.25 1.75-1 0.7-2.366 1.283-4.1 1.75-1.667 0.433-3.167 0.683-4.5 0.75-1.3 0.1-2.15 0-2.55-0.3-0.667-0.5-0.517-1.217 0.45-2.15s2.367-1.717 4.2-2.35z" clip-rule="evenodd" fill="#9EAEAB" fill-rule="evenodd"/>
	<linearGradient id="a" x1=".9624" x2="11.837" y1="2.582" y2="2.582" gradientUnits="userSpaceOnUse">
		<stop stop-color="#893342" offset="0"/>
		<stop stop-color="#2D1D1E" offset="1"/>
	</linearGradient>
	<path d="m5.2 1.05c1.233-0.367 2.566-0.55 4-0.55 1.533-0.033 2.399 0.183 2.6 0.65 0.367 0.867-1.083 1.75-4.35 2.65-3.167 0.833-5.217 1.067-6.15 0.7-0.633-0.233-0.467-0.783 0.5-1.65 0.967-0.8 2.1-1.4 3.4-1.8z" clip-rule="evenodd" fill="url(#a)" fill-rule="evenodd"/>
</svg>
